<?xml version="1.0" encoding="utf-8"?>
<!-- Uploaded to: SVG Repo, www.svgrepo.com, Generator: SVG Repo Mixer Tools -->
<svg width="800px" height="800px" viewBox="0 0 1024 1024" class="icon"  version="1.1" xmlns="http://www.w3.org/2000/svg"><path d="M533.333333 469.333333h277.333334l128 128V234.666667c0-46.933333-38.4-85.333333-85.333334-85.333334H533.333333c-46.933333 0-85.333333 38.4-85.333333 85.333334v149.333333c0 46.933333 38.4 85.333333 85.333333 85.333333z" fill="#1565C0" /><path d="M490.666667 405.333333H213.333333l-128 128V170.666667c0-46.933333 38.4-85.333333 85.333334-85.333334h320c46.933333 0 85.333333 38.4 85.333333 85.333334v149.333333c0 46.933333-38.4 85.333333-85.333333 85.333333z" fill="#2196F3" /><path d="M256 661.333333m-106.666667 0a106.666667 106.666667 0 1 0 213.333334 0 106.666667 106.666667 0 1 0-213.333334 0Z" fill="#FFA726" /><path d="M768 661.333333m-106.666667 0a106.666667 106.666667 0 1 0 213.333334 0 106.666667 106.666667 0 1 0-213.333334 0Z" fill="#FFA726" /><path d="M426.666667 896s-46.933333-85.333333-170.666667-85.333333-170.666667 85.333333-170.666667 85.333333v42.666667h341.333334v-42.666667zM938.666667 896s-46.933333-85.333333-170.666667-85.333333-170.666667 85.333333-170.666667 85.333333v42.666667h341.333334v-42.666667z" fill="#607D8B" /></svg>